<?xml version="1.0" standalone="no"?>
<!DOCTYPE svg PUBLIC "-//W3C//DTD SVG 20010904//EN"
 "http://www.w3.org/TR/2001/REC-SVG-20010904/DTD/svg10.dtd">
<svg version="1.0" xmlns="http://www.w3.org/2000/svg"
 width="2000.000000pt" height="1500.000000pt" viewBox="0 0 2000.000000 1500.000000"
 preserveAspectRatio="xMidYMid meet">
<metadata>
Created by potrace 1.16, written by Peter Selinger 2001-2019
</metadata>
<g transform="translate(0.000000,1500.000000) scale(0.100000,-0.100000)"
fill="#000000" stroke="none">
<path d="M6690 10400 l0 -1780 555 0 555 0 0 1780 0 1780 -555 0 -555 0 0
-1780z"/>
<path d="M12200 10400 l0 -1780 555 0 555 0 0 1780 0 1780 -555 0 -555 0 0
-1780z"/>
<path d="M8370 7753 c0 -559 1 -611 18 -642 30 -61 61 -76 168 -79 l94 -4 0
61 0 61 -70 0 -70 0 0 605 0 605 -70 0 -70 0 0 -607z"/>
<path d="M9460 8085 c0 -151 -3 -275 -8 -275 -4 0 -13 13 -20 28 -18 42 -71
92 -122 116 -69 32 -206 30 -281 -6 -32 -14 -76 -45 -99 -68 -167 -167 -173
-572 -13 -760 77 -90 246 -134 363 -95 52 17 109 65 157 130 l22 30 0 -77 1
-78 70 0 70 0 0 665 0 665 -70 0 -70 0 0 -275z m-114 -259 c30 -14 64 -40 80
-62 l29 -37 0 -233 0 -232 -31 -39 c-47 -58 -110 -86 -197 -87 -96 -1 -154 22
-207 81 -56 64 -70 119 -70 278 0 169 14 220 78 284 56 56 92 69 192 70 59 1
86 -4 126 -23z"/>
<path d="M9917 8342 c-11 -12 -17 -36 -17 -70 0 -43 4 -54 28 -72 21 -17 36
-21 66 -17 50 7 67 25 73 78 4 35 0 50 -17 72 -18 23 -29 27 -69 27 -34 0 -53
-5 -64 -18z"/>
<path d="M16440 8110 c0 -139 -8 -150 -105 -150 l-65 0 0 -60 0 -59 78 -3 77
-3 5 -360 c5 -328 7 -363 23 -389 29 -44 73 -56 197 -56 l110 0 0 60 0 60 -95
0 -95 0 0 345 0 345 100 0 100 0 0 60 0 60 -100 0 -100 0 0 130 0 130 -65 0
-65 0 0 -110z"/>
<path d="M4952 8073 c-19 -7 -42 -58 -42 -93 0 -35 1 -35 -82 -14 -74 19 -177
14 -253 -12 -68 -24 -155 -111 -178 -178 -21 -62 -22 -168 -1 -229 18 -52 82
-130 125 -153 37 -19 37 -31 0 -39 -17 -3 -48 -19 -70 -35 -73 -54 -80 -155
-15 -216 19 -18 34 -36 34 -41 0 -4 -21 -19 -47 -33 -68 -36 -93 -78 -93 -154
1 -166 130 -232 440 -223 184 5 263 26 335 89 60 53 79 106 73 204 -4 62 -10
82 -34 117 -58 83 -145 107 -388 108 -97 0 -175 5 -196 12 -69 24 -64 98 9
141 27 16 54 20 145 21 177 2 268 50 327 171 56 113 44 243 -32 343 -21 28
-39 63 -39 76 0 25 1 25 90 25 l90 0 0 60 0 60 -92 -1 c-51 0 -99 -3 -106 -6z
m-103 -233 c62 -36 84 -88 80 -195 -4 -92 -18 -121 -78 -162 -64 -43 -196 -39
-263 8 -48 34 -62 74 -62 169 0 117 27 165 111 196 56 21 160 13 212 -16z
m138 -823 c50 -27 66 -59 61 -117 -6 -61 -32 -92 -97 -117 -68 -27 -371 -26
-419 0 -46 25 -72 72 -72 131 0 43 4 53 40 88 l39 40 208 -4 c175 -3 213 -6
240 -21z"/>
<path d="M6693 7966 c-60 -19 -97 -50 -135 -108 l-33 -51 -3 77 -3 76 -69 0
-70 0 0 -465 0 -465 70 0 70 0 0 345 c0 381 0 382 62 428 46 34 91 47 164 47
76 0 109 -11 152 -53 57 -55 62 -92 62 -449 l0 -318 71 0 70 0 -3 358 c-3 313
-6 363 -22 404 -24 63 -85 131 -143 158 -60 28 -179 36 -240 16z"/>
<path d="M7576 7965 c-64 -18 -147 -76 -181 -126 -16 -22 -26 -40 -24 -42 2
-1 21 -17 41 -36 l37 -34 48 50 c73 75 173 101 278 72 95 -27 134 -87 135
-210 l0 -76 -162 -6 c-186 -5 -267 -24 -331 -78 -75 -62 -105 -174 -74 -280
33 -114 126 -178 268 -187 132 -8 234 39 280 129 19 38 39 44 39 13 0 -8 9
-33 21 -55 25 -50 66 -69 149 -69 l60 0 0 60 0 60 -55 0 -55 0 0 295 c0 272
-2 298 -21 349 -24 67 -96 136 -167 161 -64 23 -222 29 -286 10z m334 -607 c0
-82 -4 -109 -18 -130 -43 -65 -119 -98 -224 -98 -78 0 -122 15 -158 54 -20 23
-25 39 -28 99 -3 62 -1 76 18 100 44 56 115 73 318 76 l92 1 0 -102z"/>
<path d="M10669 7964 c-48 -14 -118 -79 -141 -129 -19 -43 -28 -28 -28 50 l0
75 -70 0 -70 0 0 -465 0 -465 70 0 70 0 0 323 c0 177 5 339 9 361 21 88 112
141 233 135 86 -5 126 -27 161 -92 21 -41 22 -52 25 -384 l3 -343 69 0 70 0 0
338 c0 386 2 397 80 448 36 24 54 28 128 31 110 5 152 -16 191 -92 l26 -49 3
-338 3 -338 70 0 70 0 -3 358 c-4 413 -5 419 -92 508 -39 40 -64 56 -105 68
-153 45 -303 -9 -365 -131 l-23 -46 -32 57 c-63 113 -212 164 -352 120z"/>
<path d="M12656 7970 c-63 -16 -155 -71 -192 -114 -102 -120 -142 -342 -95
-529 26 -101 53 -150 115 -212 76 -76 141 -99 281 -100 100 0 116 3 170 28 69
32 115 73 156 136 l29 44 -52 35 c-48 32 -51 33 -61 16 -6 -11 -31 -40 -56
-65 -71 -72 -172 -96 -275 -65 -65 20 -106 54 -141 117 -27 51 -30 63 -33 186
-6 176 2 229 41 293 47 79 115 114 216 114 105 -1 175 -40 226 -128 10 -17 14
-16 67 10 l57 27 -20 39 c-29 57 -93 116 -157 145 -43 21 -75 27 -146 29 -50
2 -108 -1 -130 -6z"/>
<path d="M13550 7965 c-186 -53 -300 -229 -300 -467 0 -216 84 -375 239 -451
62 -30 72 -32 176 -32 99 0 116 3 168 27 116 54 204 167 237 303 17 70 14 238
-5 309 -37 139 -131 254 -243 296 -75 29 -198 35 -272 15z m248 -141 c91 -45
126 -112 137 -266 9 -125 -7 -248 -41 -305 -96 -165 -364 -161 -458 7 -30 54
-31 59 -35 206 -2 119 0 164 13 208 18 61 69 127 117 152 78 40 182 39 267 -2z"/>
<path d="M14636 7966 c-58 -22 -87 -46 -126 -106 l-35 -54 -3 77 -3 77 -69 0
-70 0 0 -465 0 -465 70 0 70 0 0 343 c0 387 0 386 78 441 34 24 54 30 116 34
92 6 116 0 160 -38 67 -60 70 -76 74 -447 l3 -333 70 0 69 0 0 345 c0 370 0
374 52 422 37 35 92 53 163 53 78 0 122 -16 158 -59 46 -55 50 -85 54 -433 l5
-328 69 0 69 0 0 288 c0 335 -9 434 -45 509 -53 107 -156 160 -290 150 -110
-8 -190 -59 -237 -151 l-20 -40 -20 39 c-48 94 -133 145 -253 152 -45 2 -84
-2 -109 -11z"/>
<path d="M2522 7598 c3 -358 3 -364 27 -416 52 -116 166 -179 306 -170 108 7
162 44 232 154 10 16 12 6 12 -58 l1 -78 70 0 70 0 0 465 0 465 -70 0 -70 0 0
-340 c0 -365 -2 -382 -51 -427 -40 -37 -99 -56 -174 -56 -92 -1 -143 25 -182
90 l-28 48 -3 343 -3 342 -70 0 -70 0 3 -362z"/>
<path d="M3444 7923 c8 -21 86 -239 175 -485 l161 -447 -35 -98 c-19 -54 -35
-99 -35 -100 0 -2 -34 -3 -75 -3 l-75 0 0 -60 0 -60 78 0 c115 1 155 22 192
102 29 63 430 1163 430 1180 0 5 -30 8 -67 6 l-66 -3 -79 -220 c-43 -121 -104
-294 -135 -385 -31 -91 -59 -169 -63 -173 -4 -5 -26 49 -48 120 -23 70 -84
247 -136 393 l-94 265 -71 3 -70 3 13 -38z"/>
<path d="M5340 7635 c0 -201 4 -344 11 -377 22 -103 72 -173 153 -216 45 -24
62 -27 146 -27 79 0 102 4 136 22 43 23 98 79 116 119 19 42 28 26 28 -51 l0
-75 65 0 65 0 0 465 0 465 -64 0 -65 0 -3 -347 c-3 -338 -4 -349 -25 -383 -43
-70 -161 -110 -261 -89 -61 12 -104 45 -135 103 -21 40 -22 53 -25 379 l-3
337 -70 0 -69 0 0 -325z"/>
<path d="M9910 7495 l0 -465 70 0 70 0 0 465 0 465 -70 0 -70 0 0 -465z"/>
<path d="M17010 7495 l0 -465 70 0 70 0 0 330 c0 362 1 368 59 409 39 28 132
51 208 51 l63 0 0 70 0 70 -48 0 c-88 0 -151 -26 -209 -86 -29 -29 -53 -60
-53 -69 0 -8 -4 -15 -10 -15 -6 0 -10 35 -10 85 l0 85 -70 0 -70 0 0 -465z"/>
<path d="M11993 7233 c-40 -8 -63 -49 -63 -113 0 -80 19 -102 93 -108 52 -4
58 -2 87 26 24 25 30 39 30 76 0 65 -15 95 -55 111 -34 15 -50 16 -92 8z"/>
<path d="M15953 7229 c-45 -13 -67 -57 -60 -123 6 -67 38 -96 105 -96 26 0 57
7 69 15 48 34 54 142 10 183 -27 25 -81 34 -124 21z"/>
<path d="M6700 6363 c0 -16 5 -102 10 -193 52 -855 191 -1489 431 -1961 495
-973 1424 -1407 2949 -1376 289 6 498 22 703 52 1017 152 1673 594 2071 1396
244 491 376 1079 426 1909 5 91 10 173 10 183 0 16 -33 17 -548 17 l-549 0 -7
-172 c-23 -592 -135 -1094 -327 -1470 -199 -386 -474 -634 -872 -782 -493
-184 -1281 -205 -1842 -49 -613 170 -998 582 -1200 1282 -89 310 -155 780
-155 1105 l0 86 -550 0 -550 0 0 -27z"/>
</g>
</svg>
